<?xml version="1.0" encoding="utf-8"?>
<!-- Generator: Adobe Illustrator 26.0.3, SVG Export Plug-In . SVG Version: 6.00 Build 0)  -->
<svg version="1.0" id="katman_1" xmlns="http://www.w3.org/2000/svg" xmlns:xlink="http://www.w3.org/1999/xlink" x="0px" y="0px"
	 viewBox="0 0 600 450" style="enable-background:new 0 0 600 450;" xml:space="preserve">
<style type="text/css">
	.st0{fill-rule:evenodd;clip-rule:evenodd;fill:#E73231;}
	.st1{filter:url(#Adobe_OpacityMaskFilter);}
	.st2{fill-rule:evenodd;clip-rule:evenodd;fill:#FFFFFF;}
	
		.st3{mask:url(#w9s3x2o65b_00000121268594907245616270000008740792598351248021_);fill-rule:evenodd;clip-rule:evenodd;fill:#E73231;}
	.st4{filter:url(#Adobe_OpacityMaskFilter_00000072989869677674476730000005593016475530022027_);}
	
		.st5{mask:url(#gdwsll10nd_00000042695086251837394660000006220109493481529518_);fill-rule:evenodd;clip-rule:evenodd;fill:#E73231;}
</style>
<g>
	<g>
		<g>
			<g>
				<path class="st0" d="M262.7,234.2H262l0.3-0.6c2.3-4.8,7-8.1,12.5-8.1c5.5,0,10.2,3.3,12.5,8.2l0.3,0.6h-0.7L262.7,234.2
					L262.7,234.2z M303.4,246.3c0.3-1.8,0.5-3.6,0.5-5.5c0-2-0.2-3.9-0.5-5.7c-2.5-14-14.3-24.6-28.5-24.6
					c-16.1,0-29.1,13.5-29.1,30.2c0,16.7,13,30.3,29,30.3c9.6,0,16.3-4.4,22.2-10.2l1.1-1.1l-1.3-0.7l-12.1-6.9l-0.7-0.4
					c0,0-0.4,0.4-0.6,0.5c-2.4,1.9-5.3,3-8.5,3c-3.5,0-6.7-1.4-9.1-3.6c-1.6-1.5-2.9-3.3-3.7-5.4L303.4,246.3L303.4,246.3z
					 M348,211.5l-10.1,16.5h-8.5l0,43.1l-16.6,0l0.1-43.1l-8,0l0-16.6l8,0l0-8.6c0-16.5,14.2-25.3,27.5-21.6
					c4.5,1.3,7.8,3.3,11.6,6.9l1.5,1.4l-13.1,9.6l-0.7-0.4c-5.8-3-10.7,0.7-10.1,12.2c0,0.1,0,0.4,0,0.4S348,211.5,348,211.5z"/>
				<path class="st0" d="M372.5,254.5c-9,1.1-16.5-6.4-15.3-15.4c0.8-6.1,5.7-11,11.8-11.8c9-1.1,16.5,6.4,15.3,15.4
					C383.6,248.8,378.6,253.7,372.5,254.5 M372.8,210.7c-18.3-1.2-33.4,13.9-32.3,32.1c0.9,15.1,13.2,27.3,28.2,28.3
					c18.3,1.2,33.4-13.8,32.3-32.1C400.1,223.9,387.9,211.7,372.8,210.7 M436.4,254.5c-9,1.1-16.5-6.4-15.3-15.4
					c0.8-6.1,5.7-11,11.8-11.8c9-1.1,16.5,6.4,15.3,15.4C447.4,248.9,442.5,253.8,436.4,254.5 M436.6,210.8
					c-18.3-1.2-33.4,13.9-32.3,32.1c0.9,15.1,13.2,27.3,28.2,28.3c18.3,1.2,33.4-13.9,32.2-32.1C463.9,224,451.7,211.8,436.6,210.8"
					/>
				<g transform="translate(-120 -20) translate(120 20) translate(14.723 11.9) translate(86.258 5.817)">
					<defs>
						<filter id="Adobe_OpacityMaskFilter" filterUnits="userSpaceOnUse" x="367.3" y="161.7" width="60.7" height="91.9">
							<feColorMatrix  type="matrix" values="1 0 0 0 0  0 1 0 0 0  0 0 1 0 0  0 0 0 1 0"/>
						</filter>
					</defs>
					
						<mask maskUnits="userSpaceOnUse" x="367.3" y="161.7" width="60.7" height="91.9" id="w9s3x2o65b_00000121268594907245616270000008740792598351248021_">
						<g class="st1">
							<path id="yz1cmb4lqa_00000165923510152319504530000000538029362203920560_" class="st2" d="M367.3,161.7H428v91.9h-60.7
								V161.7z"/>
						</g>
					</mask>
					<path class="st3" d="M402,236.3c-10,3.1-19-4.8-18-14.5c0.7-6.3,5.8-11.4,12.1-12c8.3-0.9,15.2,5.5,15.2,13.6v0
						C411.3,229.2,407.6,234.6,402,236.3 M411.4,172.6l0,23l0,0.7l-0.6-0.3c-5.1-2.4-11-3.5-17.3-2.7c-15,2-26.3,15.2-26.1,30.3
						c0.2,16.5,12.4,29.9,29,29.9c4.9,0,10.8-2.4,14.3-5.7l0.8-0.8l0,1.1l0,5.4l16.6,0l0.1-89v-3l-2.6,1.5l-12.9,7.5l-1.1,0.7
						C411.4,171.3,411.4,172.2,411.4,172.6"/>
				</g>
				<g transform="translate(-120 -20) translate(120 20) translate(14.723 11.9) translate(0 .03)">
					<defs>
						
							<filter id="Adobe_OpacityMaskFilter_00000171699095696348210620000001233675555634517151_" filterUnits="userSpaceOnUse" x="56.5" y="140.8" width="145.5" height="145.2">
							<feColorMatrix  type="matrix" values="1 0 0 0 0  0 1 0 0 0  0 0 1 0 0  0 0 0 1 0"/>
						</filter>
					</defs>
					
						<mask maskUnits="userSpaceOnUse" x="56.5" y="140.8" width="145.5" height="145.2" id="gdwsll10nd_00000042695086251837394660000006220109493481529518_">
						<g style="filter:url(#Adobe_OpacityMaskFilter_00000171699095696348210620000001233675555634517151_);">
							<path id="_x34_3z5whrvfc_00000075868925934680300120000012806630990076705983_" class="st2" d="M56.5,140.8H202v145.2H56.5
								V140.8z"/>
						</g>
					</mask>
					<path class="st5" d="M133.5,218.5H202v-5.1c0-39.8-32.8-72.6-72.7-72.6s-72.7,32.8-72.7,72.6s32.8,72.6,72.7,72.6
						c0.6,0,1.1,0,1.7,0l0.9,0l0.8,0l1.3-0.1l0.3,0c15.4-1,30-6.9,41.9-16.8l-6.5-7.8c-11.3,9.5-25.3,14.6-40.2,14.6
						c-16.7,0-32.4-6.5-44.2-18.3c-11.8-11.8-18.3-27.5-18.3-44.2s6.5-32.4,18.3-44.2c11.8-11.8,27.5-18.3,44.2-18.3
						s32.4,6.5,44.2,18.3c10.6,10.6,16.9,24.3,18.1,39.1h-9.7c-1.2-12.2-6.5-23.5-15.2-32.2c-10-10-23.3-15.5-37.4-15.5
						c-14.1,0-27.4,5.5-37.4,15.5s-15.5,23.2-15.5,37.3s5.5,27.3,15.5,37.3s23.3,15.5,37.4,15.5c12.6,0,24.5-4.4,34-12.3l-6.6-7.8
						c-7.4,6.2-17,10-27.4,10c-23.5,0-42.7-19.1-42.7-42.6s19.1-42.6,42.7-42.6c21.8,0,39.9,16.4,42.4,37.5h-9.8
						c-2.5-15.8-16.1-27.8-32.6-27.8c-18.2,0-33,14.8-33,32.9s14.8,32.9,33,32.9c8.1,0,15.5-2.9,21.2-7.7l-6.5-7.8
						c-4,3.3-9.1,5.3-14.7,5.3c-12.6,0-22.8-10.2-22.8-22.8c0-12.6,10.2-22.8,22.8-22.8c10.8,0,19.9,7.6,22.2,17.7h-26.4
						L133.5,218.5L133.5,218.5z"/>
				</g>
			</g>
		</g>
	</g>
</g>
</svg>
